<svg width="35" height="37" viewBox="0 0 35 37" fill="none" xmlns="http://www.w3.org/2000/svg">
<g filter="url(#filter0_d_332_142)">
<path d="M32.6512 2.61537C32.6387 2.55491 32.6092 2.49926 32.5662 2.45495C32.5233 2.41064 32.4685 2.3795 32.4085 2.36518C28.4047 1.38627 19.1536 4.87465 14.1415 9.88471C13.2476 10.7714 12.4326 11.7344 11.7059 12.7626C10.1603 12.6259 8.61466 12.7401 7.29737 13.3143C3.58067 14.9501 2.49855 19.2185 2.19708 21.0546C2.17998 21.1551 2.18643 21.2582 2.21592 21.3558C2.24542 21.4534 2.29715 21.5428 2.36704 21.617C2.43694 21.6912 2.52311 21.7482 2.61876 21.7835C2.7144 21.8187 2.81693 21.8313 2.91827 21.8202L8.88673 21.1619C8.89099 21.6119 8.91814 22.0614 8.96807 22.5086C8.99811 22.8192 9.13597 23.1094 9.35772 23.3289L11.669 25.6347C11.8887 25.8562 12.1788 25.994 12.4893 26.0244C12.934 26.0741 13.3809 26.1012 13.8284 26.1057L13.1735 32.0666C13.1626 32.1679 13.1753 32.2704 13.2106 32.366C13.2459 32.4616 13.3029 32.5477 13.3771 32.6175C13.4513 32.6874 13.5406 32.7391 13.6381 32.7687C13.7357 32.7982 13.8387 32.8048 13.9392 32.7878C15.7719 32.4939 20.0478 31.4118 21.674 27.6951C22.2482 26.3778 22.3658 24.8397 22.2332 23.3016C23.2639 22.5748 24.2294 21.7596 25.1187 20.8653C30.1465 15.8627 33.615 6.8181 32.6512 2.61537ZM20.1024 14.8975C19.6433 14.4387 19.3306 13.854 19.2038 13.2175C19.0771 12.5809 19.1419 11.9211 19.3902 11.3214C19.6385 10.7217 20.059 10.2091 20.5987 9.84843C21.1383 9.48779 21.7728 9.29529 22.4219 9.29529C23.0709 9.29529 23.7054 9.48779 24.2451 9.84843C24.7847 10.2091 25.2053 10.7217 25.4536 11.3214C25.7018 11.9211 25.7667 12.5809 25.6399 13.2175C25.5131 13.854 25.2004 14.4387 24.7413 14.8975C24.4369 15.2024 24.0753 15.4442 23.6773 15.6092C23.2793 15.7743 22.8527 15.8592 22.4219 15.8592C21.991 15.8592 21.5644 15.7743 21.1664 15.6092C20.7684 15.4442 20.4069 15.2024 20.1024 14.8975Z" fill="#1D4ED8"/>
<path d="M11.5117 27.3048C11.1371 27.6801 10.5362 27.8264 9.81299 27.9515C8.18809 28.2283 6.75322 26.8242 7.04512 25.1815C7.15654 24.5588 7.48604 23.6858 7.69111 23.4808C7.73594 23.4368 7.76578 23.3798 7.77638 23.318C7.78699 23.2561 7.77784 23.1924 7.75021 23.136C7.72259 23.0797 7.67791 23.0334 7.62251 23.0039C7.56711 22.9743 7.50381 22.963 7.4416 22.9715C6.53294 23.0827 5.68759 23.4946 5.04014 24.1418C3.43301 25.7503 3.28125 31.7188 3.28125 31.7188C3.28125 31.7188 9.25313 31.567 10.8603 29.9585C11.5094 29.3116 11.9219 28.4649 12.0313 27.555C12.0565 27.2692 11.7086 27.099 11.5117 27.3048Z" fill="#1D4ED8"/>
</g>
<defs>
<filter id="filter0_d_332_142" x="0" y="0" width="35" height="39" filterUnits="userSpaceOnUse" color-interpolation-filters="sRGB">
<feFlood flood-opacity="0" result="BackgroundImageFix"/>
<feColorMatrix in="SourceAlpha" type="matrix" values="0 0 0 0 0 0 0 0 0 0 0 0 0 0 0 0 0 0 127 0" result="hardAlpha"/>
<feOffset dy="4"/>
<feComposite in2="hardAlpha" operator="out"/>
<feColorMatrix type="matrix" values="0 0 0 0 0.160784 0 0 0 0 0.180392 0 0 0 0 0.976471 0 0 0 0.96 0"/>
<feBlend mode="normal" in2="BackgroundImageFix" result="effect1_dropShadow_332_142"/>
<feBlend mode="normal" in="SourceGraphic" in2="effect1_dropShadow_332_142" result="shape"/>
</filter>
</defs>
</svg>
