<svg width="100" height="80" viewBox="0 0 100 80" fill="none" xmlns="http://www.w3.org/2000/svg">
<g clip-path="url(#clip0_253_36)">
<g filter="url(#filter0_d_253_36)">
<path d="M32.4997 55C32.1263 55 31.7528 55.0547 31.3966 55.1703C29.3716 55.8281 27.2419 56.25 24.9997 56.25C22.7575 56.25 20.6278 55.8281 18.6013 55.1703C18.245 55.0547 17.8731 55 17.4997 55C7.80282 55 -0.0518747 62.8875 -0.000312157 72.5968C0.0215629 76.7 3.395 80 7.49969 80H42.4997C46.6044 80 49.9778 76.7 49.9997 72.5968C50.0513 62.8875 42.1966 55 32.4997 55ZM24.9997 50C33.2841 50 39.9997 43.2844 39.9997 35C39.9997 26.7156 33.2841 20 24.9997 20C16.7153 20 9.99969 26.7156 9.99969 35C9.99969 43.2844 16.7153 50 24.9997 50ZM92.4997 0H32.4997C28.3638 0 24.9997 3.47656 24.9997 7.74843V15C28.6591 15 32.0466 16.0594 34.9997 17.7812V10H89.9997V55H79.9997V45H59.9997V55H48.0872C51.0716 57.6078 53.2622 61.0515 54.2888 65H92.4997C96.6357 65 99.9997 61.5234 99.9997 57.2515V7.74843C99.9997 3.47656 96.6357 0 92.4997 0Z" fill="white"/>
</g>
</g>
<defs>
<filter id="filter0_d_253_36" x="-18.0006" y="-14" width="136" height="116" filterUnits="userSpaceOnUse" color-interpolation-filters="sRGB">
<feFlood flood-opacity="0" result="BackgroundImageFix"/>
<feColorMatrix in="SourceAlpha" type="matrix" values="0 0 0 0 0 0 0 0 0 0 0 0 0 0 0 0 0 0 127 0" result="hardAlpha"/>
<feOffset dy="4"/>
<feGaussianBlur stdDeviation="9"/>
<feComposite in2="hardAlpha" operator="out"/>
<feColorMatrix type="matrix" values="0 0 0 0 1 0 0 0 0 1 0 0 0 0 1 0 0 0 0.47 0"/>
<feBlend mode="normal" in2="BackgroundImageFix" result="effect1_dropShadow_253_36"/>
<feBlend mode="normal" in="SourceGraphic" in2="effect1_dropShadow_253_36" result="shape"/>
</filter>
<clipPath id="clip0_253_36">
<rect width="100" height="80" fill="white"/>
</clipPath>
</defs>
</svg>
