<svg width="22" height="22" viewBox="0 0 22 22" fill="none" xmlns="http://www.w3.org/2000/svg">
<path d="M8.25 20.625H2.75C2.38544 20.6246 2.03591 20.4797 1.77813 20.2219C1.52035 19.9641 1.37536 19.6146 1.375 19.25V16.5C1.37536 16.1354 1.52035 15.7859 1.77813 15.5281C2.03591 15.2703 2.38544 15.1254 2.75 15.125H8.25C8.61456 15.1254 8.96409 15.2703 9.22187 15.5281C9.47965 15.7859 9.62464 16.1354 9.625 16.5V19.25C9.62464 19.6146 9.47965 19.9641 9.22187 20.2219C8.96409 20.4797 8.61456 20.6246 8.25 20.625ZM2.75 16.5V19.25H8.25V16.5H2.75ZM19.25 13.75H8.25C7.88544 13.7496 7.53591 13.6047 7.27813 13.3469C7.02035 13.0891 6.87536 12.7396 6.875 12.375V9.625C6.87536 9.26044 7.02035 8.91091 7.27813 8.65313C7.53591 8.39535 7.88544 8.25036 8.25 8.25H19.25C19.6146 8.25036 19.9641 8.39535 20.2219 8.65313C20.4797 8.91091 20.6246 9.26044 20.625 9.625V12.375C20.6246 12.7396 20.4797 13.0891 20.2219 13.3469C19.9641 13.6047 19.6146 13.7496 19.25 13.75ZM8.25 9.625V12.375H19.25V9.625H8.25ZM11 6.875H2.75C2.38544 6.87464 2.03591 6.72965 1.77813 6.47187C1.52035 6.21409 1.37536 5.86456 1.375 5.5V2.75C1.37536 2.38544 1.52035 2.03591 1.77813 1.77813C2.03591 1.52035 2.38544 1.37536 2.75 1.375H11C11.3646 1.37536 11.7141 1.52035 11.9719 1.77813C12.2297 2.03591 12.3746 2.38544 12.375 2.75V5.5C12.3746 5.86456 12.2297 6.21409 11.9719 6.47187C11.7141 6.72965 11.3646 6.87464 11 6.875ZM2.75 2.75V5.5H11V2.75H2.75Z" fill="#5A5A5A"/>
</svg>
