<svg width="15" height="14" viewBox="0 0 15 14" fill="none" xmlns="http://www.w3.org/2000/svg">
<path fill-rule="evenodd" clip-rule="evenodd" d="M3.44985 5.87519C3.44985 5.87519 3.75585 5.83394 4.19985 5.71544C5.3706 5.40306 7.49985 4.55519 7.49985 2.51594C7.49985 2.21839 7.44125 1.92377 7.32738 1.64887C7.21352 1.37398 7.04662 1.1242 6.83623 0.91381C6.62583 0.703416 6.37606 0.536522 6.10117 0.422657C5.82627 0.308793 5.53164 0.250188 5.2341 0.250188H3.0156C2.71563 0.246328 2.41788 0.302078 2.13963 0.414201C1.86137 0.526325 1.60815 0.69259 1.39466 0.90335C1.18118 1.11411 1.01167 1.36517 0.895973 1.64196C0.780279 1.91875 0.720703 2.21575 0.720703 2.51575C0.720703 2.81575 0.780279 3.11275 0.895973 3.38954C1.01167 3.66633 1.18118 3.91739 1.39466 4.12815C1.60815 4.33891 1.86137 4.50518 2.13963 4.6173C2.41788 4.72942 2.71563 4.78517 3.0156 4.78131H3.44985V5.87519ZM4.19985 4.03131H3.0156C2.81457 4.03447 2.61492 3.99761 2.42827 3.92287C2.24162 3.84812 2.07171 3.73699 1.92843 3.59594C1.78514 3.4549 1.67135 3.28675 1.59368 3.1013C1.51601 2.91586 1.47601 2.71681 1.47601 2.51575C1.47601 2.31469 1.51601 2.11564 1.59368 1.9302C1.67135 1.74475 1.78514 1.5766 1.92843 1.43556C2.07171 1.29451 2.24162 1.18338 2.42827 1.10863C2.61492 1.03389 2.81457 0.997025 3.0156 1.00019H5.2341C5.43315 1.00019 5.63025 1.03939 5.81415 1.11557C5.99805 1.19174 6.16515 1.30339 6.3059 1.44414C6.44665 1.58489 6.5583 1.75199 6.63447 1.93589C6.71065 2.11978 6.74985 2.31689 6.74985 2.51594C6.74985 3.48456 6.07185 4.12956 5.14898 4.57469C4.84267 4.72022 4.5253 4.84122 4.19985 4.93656V4.03131ZM3.93735 10.0002C4.7661 10.0002 5.43735 9.32894 5.43735 8.50019C5.43735 7.67144 4.7661 7.00019 3.93735 7.00019C3.1086 7.00019 2.43735 7.67144 2.43735 8.50019C2.43735 9.32894 3.1086 10.0002 3.93735 10.0002ZM4.68735 8.50019C4.68735 8.6991 4.60833 8.88986 4.46768 9.03052C4.32703 9.17117 4.13626 9.25019 3.93735 9.25019C3.73844 9.25019 3.54767 9.17117 3.40702 9.03052C3.26637 8.88986 3.18735 8.6991 3.18735 8.50019C3.18735 8.30128 3.26637 8.11051 3.40702 7.96986C3.54767 7.82921 3.73844 7.75019 3.93735 7.75019C4.13626 7.75019 4.32703 7.82921 4.46768 7.96986C4.60833 8.11051 4.68735 8.30128 4.68735 8.50019ZM0.749851 12.3503C0.749851 11.2861 2.87348 10.7502 3.93735 10.7502C5.00123 10.7502 7.12485 11.2864 7.12485 12.3503V13.7502H0.749851V12.3503ZM1.49985 13.0002V12.3503C1.49985 12.3466 1.49985 12.3391 1.5096 12.3203C1.5216 12.2971 1.54898 12.2562 1.60823 12.2014C1.7316 12.0871 1.93823 11.9622 2.22435 11.8471C2.7981 11.6164 3.49935 11.5002 3.93735 11.5002C4.37498 11.5002 5.07698 11.6164 5.65035 11.8471C5.9361 11.9622 6.1431 12.0871 6.26648 12.2014C6.32573 12.2562 6.3531 12.2971 6.3651 12.3199C6.37485 12.3387 6.37485 12.3469 6.37485 12.3499V13.0002H1.49985ZM12.5624 8.50019C12.5624 9.32894 11.8911 10.0002 11.0624 10.0002C10.2336 10.0002 9.56235 9.32894 9.56235 8.50019C9.56235 7.67144 10.2336 7.00019 11.0624 7.00019C11.8911 7.00019 12.5624 7.67144 12.5624 8.50019ZM11.0624 9.25019C11.2613 9.25019 11.452 9.17117 11.5927 9.03052C11.7333 8.88986 11.8124 8.6991 11.8124 8.50019C11.8124 8.30128 11.7333 8.11051 11.5927 7.96986C11.452 7.82921 11.2613 7.75019 11.0624 7.75019C10.8634 7.75019 10.6727 7.82921 10.532 7.96986C10.3914 8.11051 10.3124 8.30128 10.3124 8.50019C10.3124 8.6991 10.3914 8.88986 10.532 9.03052C10.6727 9.17117 10.8634 9.25019 11.0624 9.25019ZM7.87485 12.3503C7.87485 11.2861 9.99848 10.7502 11.0624 10.7502C12.1262 10.7502 14.2499 11.2864 14.2499 12.3503V13.7502H7.87485V12.3503ZM8.62485 13.0002V12.3503C8.62485 12.3466 8.62485 12.3391 8.6346 12.3203C8.6466 12.2971 8.67398 12.2562 8.73285 12.2014C8.8566 12.0871 9.0636 11.9622 9.34935 11.8471C9.9231 11.6164 10.6244 11.5002 11.0624 11.5002C11.5 11.5002 12.202 11.6164 12.7754 11.8471C13.0611 11.9622 13.2681 12.0871 13.3919 12.2014C13.4507 12.2562 13.4781 12.2971 13.4901 12.3199C13.4999 12.3387 13.4999 12.3469 13.4999 12.3499V13.0002H8.62485ZM11.0999 6.06494C11.5386 6.20294 11.8499 6.25019 11.8499 6.25019V5.15631H11.9841C12.2841 5.16017 12.5818 5.10442 12.8601 4.9923C13.1383 4.88018 13.3915 4.71391 13.605 4.50315C13.8185 4.29239 13.988 4.04133 14.1037 3.76454C14.2194 3.48775 14.279 3.19075 14.279 2.89075C14.279 2.59075 14.2194 2.29375 14.1037 2.01696C13.988 1.74017 13.8185 1.48911 13.605 1.27835C13.3915 1.06759 13.1383 0.901325 12.8601 0.789201C12.5818 0.677078 12.2841 0.621328 11.9841 0.625188H10.5156C9.91469 0.625188 9.33838 0.8639 8.91347 1.28881C8.48856 1.71372 8.24985 2.29002 8.24985 2.89094C8.24985 4.87694 10.045 5.73344 11.0999 6.06494ZM11.9841 4.40631H11.0999V5.27369C10.8617 5.18864 10.6303 5.08586 10.4076 4.96619C9.6261 4.54206 8.99985 3.90569 8.99985 2.89056C8.99995 2.48863 9.15969 2.10319 9.44394 1.81901C9.72818 1.53483 10.1137 1.37519 10.5156 1.37519H11.9841C12.1851 1.37203 12.3848 1.40889 12.5714 1.48363C12.7581 1.55838 12.928 1.66951 13.0713 1.81056C13.2146 1.9516 13.3284 2.11975 13.406 2.3052C13.4837 2.49064 13.5237 2.68969 13.5237 2.89075C13.5237 3.09181 13.4837 3.29086 13.406 3.4763C13.3284 3.66175 13.2146 3.8299 13.0713 3.97094C12.928 4.11199 12.7581 4.22312 12.5714 4.29787C12.3848 4.37261 12.1851 4.40947 11.9841 4.40631Z" fill="white"/>
</svg>
