<svg width="15" height="16" viewBox="0 0 15 16" fill="none" xmlns="http://www.w3.org/2000/svg">
<path d="M6.45 9.35L4.81875 7.71875C4.68125 7.58125 4.5095 7.51575 4.3035 7.52225C4.097 7.52825 3.925 7.6 3.7875 7.7375C3.65 7.875 3.58125 8.05 3.58125 8.2625C3.58125 8.475 3.65 8.65 3.7875 8.7875L5.925 10.925C6.0625 11.0625 6.2375 11.1312 6.45 11.1312C6.6625 11.1312 6.8375 11.0625 6.975 10.925L11.2313 6.66875C11.3688 6.53125 11.4345 6.35925 11.4285 6.15275C11.422 5.94675 11.35 5.775 11.2125 5.6375C11.075 5.5 10.9 5.43125 10.6875 5.43125C10.475 5.43125 10.3 5.5 10.1625 5.6375L6.45 9.35ZM7.5 15.5C6.4625 15.5 5.4875 15.303 4.575 14.909C3.6625 14.5155 2.86875 13.9813 2.19375 13.3063C1.51875 12.6313 0.9845 11.8375 0.591 10.925C0.197 10.0125 0 9.0375 0 8C0 6.9625 0.197 5.9875 0.591 5.075C0.9845 4.1625 1.51875 3.36875 2.19375 2.69375C2.86875 2.01875 3.6625 1.48425 4.575 1.09025C5.4875 0.69675 6.4625 0.5 7.5 0.5C8.5375 0.5 9.5125 0.69675 10.425 1.09025C11.3375 1.48425 12.1313 2.01875 12.8063 2.69375C13.4813 3.36875 14.0155 4.1625 14.409 5.075C14.803 5.9875 15 6.9625 15 8C15 9.0375 14.803 10.0125 14.409 10.925C14.0155 11.8375 13.4813 12.6313 12.8063 13.3063C12.1313 13.9813 11.3375 14.5155 10.425 14.909C9.5125 15.303 8.5375 15.5 7.5 15.5ZM7.5 14C9.1625 14 10.5782 13.4158 11.7472 12.2472C12.9158 11.0782 13.5 9.6625 13.5 8C13.5 6.3375 12.9158 4.92175 11.7472 3.75275C10.5782 2.58425 9.1625 2 7.5 2C5.8375 2 4.422 2.58425 3.2535 3.75275C2.0845 4.92175 1.5 6.3375 1.5 8C1.5 9.6625 2.0845 11.0782 3.2535 12.2472C4.422 13.4158 5.8375 14 7.5 14Z" fill="white"/>
</svg>
