<svg width="44" height="44" viewBox="0 0 44 44" fill="none" xmlns="http://www.w3.org/2000/svg">
<g clip-path="url(#clip0_338_7)">
<path fill-rule="evenodd" clip-rule="evenodd" d="M0 22C0 16.1652 2.31785 10.5695 6.44365 6.44365C10.5695 2.31785 16.1652 0 22 0C27.8348 0 33.4305 2.31785 37.5564 6.44365C41.6822 10.5695 44 16.1652 44 22C44 27.8348 41.6822 33.4305 37.5564 37.5564C33.4305 41.6822 27.8348 44 22 44C16.1652 44 10.5695 41.6822 6.44365 37.5564C2.31785 33.4305 0 27.8348 0 22H0ZM20.7445 31.416L33.4107 15.5819L31.1227 13.7515L20.3221 27.2477L12.672 20.8736L10.7947 23.1264L20.7445 31.4189V31.416Z" fill="#10CE00"/>
</g>
<defs>
<clipPath id="clip0_338_7">
<rect width="44" height="44" fill="white"/>
</clipPath>
</defs>
</svg>
